<svg xmlns="http://www.w3.org/2000/svg" width="8.166" height="15.104" viewBox="0 0 8.166 15.104"><defs><style>.a{fill:#fff;}</style></defs><path class="a" d="M29.935,0,27.977,0a3.44,3.44,0,0,0-3.622,3.717V5.431H22.385a.308.308,0,0,0-.308.308V8.222a.308.308,0,0,0,.308.308h1.969V14.8a.308.308,0,0,0,.308.308h2.569a.308.308,0,0,0,.308-.308V8.53h2.3a.308.308,0,0,0,.308-.308V5.739a.308.308,0,0,0-.308-.308h-2.3V3.978c0-.7.166-1.053,1.076-1.053h1.319a.308.308,0,0,0,.308-.308V.311A.308.308,0,0,0,29.935,0Z" transform="translate(-22.077)"/></svg>