<svg xmlns="http://www.w3.org/2000/svg" width="41.017" height="41.017" viewBox="0 0 41.017 41.017"><defs><style>.a{fill:#fff;stroke:#000;}.b{stroke:none;}.c{fill:none;}</style></defs><g transform="translate(-1787.077 -3852)"><g class="a" transform="translate(1787.077 3852)"><rect class="b" width="41.017" height="41.017" rx="20.508"/><rect class="c" x="0.5" y="0.5" width="40.017" height="40.017" rx="20.008"/></g><path d="M12.773,4.876a.672.672,0,0,0-.955.946l4.844,4.844H.678A.673.673,0,0,0,0,11.335a.681.681,0,0,0,.678.678H16.662l-4.844,4.835a.686.686,0,0,0,0,.955.669.669,0,0,0,.955,0l5.991-5.991a.674.674,0,0,0,0-.946Z" transform="translate(1798.256 3861.204)"/></g></svg>