<svg xmlns="http://www.w3.org/2000/svg" width="41.017" height="41.017" viewBox="0 0 41.017 41.017"><defs><style>.a{fill:#fff;stroke:#000;}.b{stroke:none;}.c{fill:none;}</style></defs><g class="a" transform="translate(0 0)"><rect class="b" width="41.017" height="41.017" rx="20.508"/><rect class="c" x="0.5" y="0.5" width="40.017" height="40.017" rx="20.008"/></g><path d="M6.184,4.876a.672.672,0,0,1,.955.946L2.295,10.666H18.279a.673.673,0,0,1,.678.669.681.681,0,0,1-.678.678H2.295l4.844,4.835a.686.686,0,0,1,0,.955.669.669,0,0,1-.955,0L.193,11.813a.674.674,0,0,1,0-.946Z" transform="translate(10.88 9.204)"/></svg>