<svg xmlns="http://www.w3.org/2000/svg" width="15.104" height="15.104" viewBox="0 0 15.104 15.104"><defs><style>.a{fill:#fff;}</style></defs><path class="a" d="M10.384,0H4.72A4.72,4.72,0,0,0,0,4.72v5.664A4.72,4.72,0,0,0,4.72,15.1h5.664a4.72,4.72,0,0,0,4.72-4.72V4.72A4.72,4.72,0,0,0,10.384,0Zm3.3,10.384a3.308,3.308,0,0,1-3.3,3.3H4.72a3.308,3.308,0,0,1-3.3-3.3V4.72a3.308,3.308,0,0,1,3.3-3.3h5.664a3.308,3.308,0,0,1,3.3,3.3Z"/><g transform="translate(3.776 3.776)"><path class="a" d="M131.776,128a3.776,3.776,0,1,0,3.776,3.776A3.776,3.776,0,0,0,131.776,128Zm0,6.136a2.36,2.36,0,1,1,2.36-2.36A2.363,2.363,0,0,1,131.776,134.136Z" transform="translate(-128 -128)"/></g><g transform="translate(11.108 2.99)"><ellipse class="a" cx="0.503" cy="0.503" rx="0.503" ry="0.503"/></g></svg>