<svg xmlns="http://www.w3.org/2000/svg" width="18.594" height="15.104" viewBox="0 0 18.594 15.104"><defs><style>.a{fill:#fff;}</style></defs><path class="a" d="M18.6,59.228a7.617,7.617,0,0,1-2.19.6,3.83,3.83,0,0,0,1.677-2.109,7.69,7.69,0,0,1-2.424.926,3.817,3.817,0,0,0-6.5,3.478A10.829,10.829,0,0,1,1.3,58.138,3.819,3.819,0,0,0,2.477,63.23a3.815,3.815,0,0,1-1.728-.479V62.8a3.818,3.818,0,0,0,3.059,3.74,3.863,3.863,0,0,1-1.005.134,3.661,3.661,0,0,1-.718-.071,3.816,3.816,0,0,0,3.562,2.649,7.653,7.653,0,0,1-4.737,1.63A8.109,8.109,0,0,1,0,70.828a10.782,10.782,0,0,0,5.847,1.716A10.777,10.777,0,0,0,16.7,61.692l-.013-.494A7.617,7.617,0,0,0,18.6,59.228Z" transform="translate(-0.001 -57.441)"/></svg>